<?xml version="1.0" encoding="utf-8"?><svg xml:space="preserve" viewBox="0 0 100 100" y="0" x="0" xmlns="http://www.w3.org/2000/svg" id="圖層_1" version="1.1" width="200px" height="200px" xmlns:xlink="http://www.w3.org/1999/xlink" style="width:100%;height:100%;animation-play-state:paused" ><g class="ldl-scale" style="transform-origin:50% 50% 0px;transform:rotate(0deg) scale(0.8);animation-play-state:paused" ><circle fill="#333" r="40" cy="50" cx="50" style="fill:rgb(51, 51, 51);animation-play-state:paused" ></circle>
<path fill="#fff" d="M65.2 42c-.4.2-.7.5-1.1.7-1.5 1.1-2.9 2.3-4.2 3.6-1.3 1.3-2.5 2.8-4.1 4.2-.4-1.8-.1-3.5.7-5.2.6-1.2 1.4-2.4 2.6-3.4h-5.3c-.4.3-.8.5-1.1.8-1.5 1.1-2.9 2.3-4.1 3.6-1.3 1.3-2.5 2.8-4 4.2-.4-1.8-.1-3.5.7-5.2.6-1.2 1.4-2.4 2.5-3.4h-4.6c-.4.3-.8.5-1.2.8-1.6 1.1-3 2.3-4.4 3.6-1.4 1.3-2.7 2.8-4.2 4.2-.4-1.8-.1-3.5.7-5.2.6-1.2 1.5-2.4 2.7-3.4h-1c-5.4 0-9.7 4.3-9.7 9.7v.8c0 3.2 2.6 5.7 5.7 5.7h36.6c3.2 0 5.7-2.6 5.7-5.7v-.8c-.1-5-4-9.2-8.9-9.6z" style="fill:rgb(255, 255, 255);animation-play-state:paused" ></path>
<metadata xmlns:d="https://loading.io/stock/" style="animation-play-state:paused" ><d:name style="animation-play-state:paused" >bread</d:name>
<d:tags style="animation-play-state:paused" >bread,baguette,french bread,french toast,ciabatta,food,eat</d:tags>
<d:license style="animation-play-state:paused" >by</d:license>
<d:slug style="animation-play-state:paused" >qkuokm</d:slug></metadata></g><!-- generated by https://loading.io/ --></svg>