<?xml version="1.0" encoding="utf-8"?><svg xml:space="preserve" viewBox="0 0 100 100" y="0" x="0" xmlns="http://www.w3.org/2000/svg" id="圖層_1" version="1.1" width="1rem" height="1rem" xmlns:xlink="http://www.w3.org/1999/xlink" style="width:100%;height:100%;animation-play-state:paused" ><g class="ldl-scale" style="transform-origin:50% 50% 0px;transform:rotate(0deg) scale(0.8);animation-play-state:paused" ><circle fill="#333" r="40" cy="50" cx="50" style="fill:rgb(51, 51, 51);animation-play-state:paused" ></circle>
<path fill="#fff" d="M73 39.6c-.4-1.6-1.5-2.5-3.1-2.9-1.6-.3-3.9-.1-6.9.6 1.5-3.4 2.1-6.5-.7-8.1-2.8-1.6-5.2.5-7.2 3.4-1.3-4.5-3.3-8.5-7-7.5-1.6.4-2.5 1.5-2.8 3.2-.3 1.8 0 4.4 1 8 .2.6.3 1.2.5 1.8-.9 0-1.8.1-2.7.5-1.9.7-3.3 2.3-3.8 4.2l-6.9 23.5c-.9 3 .4 6.2 3.2 7.8 1.1.6 2.3 1 3.5 1 1.8 0 3.6-.7 4.8-2.1l16.9-17.8c1.4-1.4 2-3.4 1.7-5.4-.1-.9-.5-1.8-.9-2.6.6-.1 1.2-.2 1.8-.4 4.7-1.3 9.6-3.1 8.6-7.2zM61.2 50.1c.2 1.3-.2 2.6-1.1 3.6L43.2 71.4c-1.5 1.5-3.8 1.8-5.7.7-1.9-1.1-2.8-3.3-2.2-5.3l6.9-23.5c.4-1.3 1.3-2.3 2.6-2.8.6-.2 1.1-.3 1.7-.3.3 0 .7 0 1 .1.5.1 1 .3 1.4.5l1.5.8.2.1.7.4h.1l.9.5.1.1 1.1.6.8.5 1.1.6.2.1.8.5.2.1.6.4.3.2 1.4.8c.5.3.8.6 1.2 1 .6.8 1 1.6 1.1 2.6z" style="fill:rgb(255, 255, 255);animation-play-state:paused" ></path>
<metadata xmlns:d="https://loading.io/stock/" style="animation-play-state:paused" ><d:name style="animation-play-state:paused" >carrot</d:name>


<d:tags style="animation-play-state:paused" >carrot,radish,vegetable,root,plant,rabbit,rutabaga,swede,turnip</d:tags>


<d:license style="animation-play-state:paused" >by</d:license>


<d:slug style="animation-play-state:paused" >m6req0</d:slug></metadata></g><!-- generated by https://loading.io/ --></svg>