<?xml version="1.0" encoding="UTF-8" standalone="no"?>
<svg
   width="16"
   height="16"
   fill="currentColor"
   class="bi bi-currency-euro"
   viewBox="0 0 16 16"
   version="1.1"
   id="svg4"
   sodipodi:docname="currency-euro.svg"
   xml:space="preserve"
   xmlns:inkscape="http://www.inkscape.org/namespaces/inkscape"
   xmlns:sodipodi="http://sodipodi.sourceforge.net/DTD/sodipodi-0.dtd"
   xmlns="http://www.w3.org/2000/svg"
   xmlns:svg="http://www.w3.org/2000/svg"><defs
     id="defs8" /><sodipodi:namedview
     id="namedview6"
     pagecolor="#ffffff"
     bordercolor="#000000"
     borderopacity="0.25"
     inkscape:showpageshadow="2"
     inkscape:pageopacity="0.0"
     inkscape:pagecheckerboard="0"
     inkscape:deskcolor="#d1d1d1"
     showgrid="false" /><path
     d="m 3.9999997,9.420181 h 1.0629999 c 0.337,2.903 2.2540001,4.58 5.2770004,4.58 0.622,0 1.167,-0.068 1.659,-0.185 v -1.3 c -0.484,0.119 -1.045,0.17 -1.659,0.17 -2.1000003,0 -3.4550004,-1.198 -3.7750004,-3.264 h 4.0169994 v -0.928 H 6.4969996 v -0.936 q -0.002,-0.165 0.008,-0.329 h 4.0779994 v -0.927 H 6.6179996 c 0.388,-1.898 1.719,-2.985 3.7230004,-2.985 0.614,0 1.175,0.05 1.659,0.177 v -1.299 a 6.6,6.6 0 0 0 -1.659,-0.194 c -2.9280004,0 -4.8200004,1.569 -5.2440004,4.3 H 3.9999997 v 0.928 h 1.0099999 v 1.265 H 3.9999997 v 0.928 z"
     id="path2" /><g
     style="fill:currentColor"
     id="g311"
     transform="translate(0.20338912,-0.33898301)"><g
       style="fill:currentColor"
       id="g2790"
       transform="translate(-0.20338912,0.33898301)"><path
         d="m 14,1 a 1,1 0 0 1 1,1 v 12 a 1,1 0 0 1 -1,1 H 2 A 1,1 0 0 1 1,14 V 2 A 1,1 0 0 1 2,1 Z M 2,0 A 2,2 0 0 0 0,2 v 12 a 2,2 0 0 0 2,2 h 12 a 2,2 0 0 0 2,-2 V 2 A 2,2 0 0 0 14,0 Z"
         id="path2778" /><path
         d="m 13.107699,2.8923006 a 0.76144424,0.76144424 0 0 1 0,1.078205 L 3.9703685,13.107836 A 0.7624061,0.7624061 0 0 1 2.8921635,12.029631 L 12.029494,2.8923006 a 0.76144424,0.76144424 0 0 1 1.078205,0"
         id="path2780"
         style="stroke-width:1.52289" /></g></g></svg>
